<?xml version="1.0" encoding="UTF-8" standalone="no"?>
<!-- Created with Inkscape (http://www.inkscape.org/) -->

<svg
   xmlns:dc="http://purl.org/dc/elements/1.1/"
   xmlns:cc="http://creativecommons.org/ns#"
   xmlns:rdf="http://www.w3.org/1999/02/22-rdf-syntax-ns#"
   xmlns:svg="http://www.w3.org/2000/svg"
   xmlns="http://www.w3.org/2000/svg"
   xmlns:sodipodi="http://sodipodi.sourceforge.net/DTD/sodipodi-0.dtd"
   xmlns:inkscape="http://www.inkscape.org/namespaces/inkscape"
   width="659"
   height="190"
   id="svg2"
   version="1.1"
   inkscape:version="0.48.4 r9939"
   sodipodi:docname="Fox_Retro_logo.svg">
  <title
     id="title2989">Fox Retro logo</title>
  <metadata
     id="metadata12">
    <rdf:RDF>
      <cc:Work
         rdf:about="">
        <dc:format>image/svg+xml</dc:format>
        <dc:type
           rdf:resource="http://purl.org/dc/dcmitype/StillImage" />
        <dc:title>Fox Retro logo</dc:title>
      </cc:Work>
    </rdf:RDF>
  </metadata>
  <defs
     id="defs10" />
  <sodipodi:namedview
     pagecolor="#ffffff"
     bordercolor="#666666"
     borderopacity="1"
     objecttolerance="10"
     gridtolerance="10"
     guidetolerance="10"
     inkscape:pageopacity="0"
     inkscape:pageshadow="2"
     inkscape:window-width="1600"
     inkscape:window-height="844"
     id="namedview8"
     showgrid="false"
     inkscape:zoom="1.58"
     inkscape:cx="318.42405"
     inkscape:cy="95"
     inkscape:window-x="-4"
     inkscape:window-y="-4"
     inkscape:window-maximized="1"
     inkscape:current-layer="layer1" />
  <g
     inkscape:label="Layer 1"
     inkscape:groupmode="layer"
     id="layer1"
     transform="translate(-58.968048,-221.90722)">
    <path
       style="fill:#1f1a1c;fill-rule:nonzero;stroke:none"
       d="m 58.968048,383.23891 0,-127.02601 76.131992,0 2.43257,34.74021 -42.684084,0.038 0,16.5339 34.778214,0.076 0,34.58817 -35.044277,0 0.152036,41.0497 z"
       id="path19499" />
    <path
       style="fill:#1f1a1c;fill-rule:nonzero;stroke:none"
       d="m 350.70978,383.00706 -38.085,-65.90758 34.66419,-60.62432 -39.11124,0 -14.89952,27.32846 -14.59545,-27.32846 -40.47956,0 35.34835,61.15645 -37.36283,65.37545 39.18726,0.11402 17.44612,-32.11758 17.59816,32.00356 z"
       id="path19503" />
    <path
       id="path19509"
       d="m 195.83839,355.57978 c -5.62533,0 -10.30044,-4.67511 -10.30044,-10.45247 l 0,-50.62797 c 0,-5.73935 4.67511,-10.94658 10.30044,-10.94658 5.70135,0 10.6045,5.20723 10.6045,10.98459 l 0,50.66597 c 0,5.81538 -4.94116,10.37646 -10.6045,10.37646 m -0.11403,-97.41702 c -33.37188,-0.038 -60.32025,27.63253 -60.32025,61.8026 0,34.05605 26.94837,61.68858 60.32025,61.68858 33.21985,0 60.28225,-27.63253 60.28225,-61.68858 0,-34.17007 -27.0624,-61.84061 -60.28225,-61.8026"
       style="fill:#1f1a1c;fill-rule:nonzero;stroke:none" />
    <path
       id="path19513"
       d="m 665.72822,322.48156 c -3.95294,-2.43258 -7.44976,-8.05791 -7.52578,-13.91129 -0.15204,-6.23347 3.72488,-8.36198 6.11944,-1.86244 1.36833,3.61085 1.78643,8.97012 1.40634,15.77373 m -0.4181,7.48777 c -0.72217,5.20723 -2.01448,11.28866 -3.87692,17.48413 -6.3475,21.24702 -17.63617,31.09134 -24.40176,27.44248 -6.3475,-3.49683 -7.03167,-23.33751 -1.44435,-40.93567 2.77466,-8.81809 7.48777,-16.914 12.12487,-22.8434 1.7104,7.71582 8.17193,13.98731 13.22713,16.4959 1.44434,0.76018 2.85067,1.36832 4.44705,1.67239 l -0.26607,0.64616 c 0.038,0 0.15204,0 0.19005,0.038 m -198.901,6.49953 c 5.81537,-21.70313 20.56286,-37.6669 25.58004,-34.96826 3.3828,1.7104 0.95023,13.45518 -3.91492,23.48955 -4.48506,9.12215 -11.21265,19.76467 -22.65335,15.31762 0.22805,-1.14027 0.57013,-2.47059 0.98823,-3.83891 m 251.16335,-43.10218 c -0.87421,-1.90045 -2.58461,-1.86244 -3.57285,-0.15204 -7.6398,12.2769 -19.95471,26.91036 -34.51215,30.36918 -0.11403,-1.2543 -0.30407,-2.43258 -0.38009,-3.72488 -1.71041,-15.27961 -8.24795,-15.50767 -14.3674,-21.05698 -5.28325,-4.78913 -9.12215,-5.73936 -15.54567,-4.219 -12.2769,3.49683 -22.61534,17.94024 -27.70855,33.75198 -3.07872,9.38822 -4.48506,18.89046 -3.53483,27.32846 -3.83891,9.16016 -8.81809,15.88775 -14.17735,16.68594 -5.9294,0.95022 -9.95836,-6.49954 -8.81809,-17.7882 1.14027,-11.25066 8.59003,-26.11217 15.69771,-38.35107 4.52307,-7.90586 -2.16651,-15.88775 -6.84161,-19.38458 -1.74842,-1.36832 -3.30678,-0.64615 -5.39728,1.48235 -6.49953,6.80361 -12.77102,11.44071 -19.11852,13.56921 2.5086,-13.87328 1.78643,-26.03615 -4.44705,-24.59181 -7.48777,1.7104 -20.41082,29.34293 -7.29772,34.58817 -4.6371,10.5665 -12.54297,28.20267 -16.4959,39.26328 -3.83891,6.04343 -8.17193,10.26242 -12.65699,10.94659 -8.85609,1.33031 -13.68323,-11.13664 -9.84433,-27.74656 4.40905,-19.11852 13.30315,-44.81259 18.66241,-60.39627 5.01719,-1.90045 11.36469,-3.8009 16.03979,-4.10497 3.15475,-0.60814 3.68687,-2.24253 1.74842,-4.44705 -2.20452,-2.39457 -6.08144,-5.5113 -14.17735,-3.68687 2.85067,-11.8208 1.48235,-18.73843 -1.97647,-24.13571 -1.52036,-2.28053 -3.68687,-2.05248 -5.01719,0.98824 -2.62262,5.32126 -6.49953,16.30585 -10.68052,29.03886 -5.47329,1.74841 -11.21265,3.34479 -17.10404,4.29501 -3.11674,0.4181 -4.10497,2.12851 -1.44434,4.6371 2.1285,1.97647 7.52578,4.14298 14.63346,2.73665 -5.43529,17.40811 -11.4027,38.46509 -13.91129,50.24787 -6.30949,15.31762 -17.97825,34.20808 -35.00627,36.75468 -11.09863,1.59638 -18.70042,-10.52848 -15.84975,-30.97732 16.87599,8.97012 29.68502,0.76018 37.36283,-13.72124 6.61356,-12.35292 5.77737,-25.39 1.02624,-29.647 -4.21899,-3.91493 -8.55202,-6.27148 -14.36739,-8.36198 -11.59274,-3.95293 -30.59723,11.06061 -38.73115,40.59359 -8.17193,29.53298 6.15745,53.70669 32.38365,48.04336 13.22712,-2.85068 25.08593,-12.08686 32.30763,-23.37553 2.62262,14.17735 12.96106,21.01897 23.18548,19.27056 3.76289,-0.57014 7.1837,-2.16652 10.26243,-4.219 -0.68417,7.86786 1.67239,14.21536 7.06967,18.01626 2.20452,1.44434 3.19275,0.15203 3.26877,-1.78643 0.15203,-19.30856 13.94929,-52.18633 18.85245,-68.03607 6.08144,-1.21629 14.48142,-4.78913 22.23526,-12.50496 -6.23348,11.02261 -15.16559,27.86059 -16.95201,42.22798 -2.05248,16.30585 6.53755,28.65877 21.28503,26.30222 6.49954,-1.02625 12.65699,-5.35927 17.14205,-11.4027 1.55837,3.53484 3.76289,6.65157 6.68958,9.23618 10.45247,9.23619 21.05698,7.98189 28.01262,3.95294 14.25337,-8.20994 23.14747,-31.54746 24.1357,-50.05783 14.02532,-2.62262 27.17643,-11.78278 34.62619,-23.22349 3.72488,-5.58732 4.21899,-11.55473 3.30678,-13.22712 M 404.87258,281.69792 c 4.90316,-13.26513 6.38551,-22.27326 5.39728,-29.15289 15.62169,-6.7656 38.42708,-23.14747 45.80082,-10.11039 9.61627,16.53391 -13.1131,56.55737 -65.75554,76.39805 4.90316,-13.07509 9.57826,-24.32574 14.55744,-37.13477 m 94.71838,114.52106 c -2.58461,0.87421 -8.13392,2.5466 -8.17193,2.5466 -6.27148,1.90045 -12.84704,2.66063 -17.63617,2.66063 -26.91036,-0.15204 -40.17549,-22.53933 -71.60892,-69.74648 26.26421,-10.37645 51.76823,-30.10311 62.48677,-49.67774 7.56378,-13.91129 8.8941,-29.41895 1.59637,-43.48227 -8.24794,-15.96378 -19.61263,-18.13029 -32.11758,-15.84975 -16.34387,3.11674 -47.54924,25.42801 -72.63517,23.52756 -3.26877,-0.26606 -3.72488,2.28054 -2.09049,4.56108 3.68687,5.01718 27.59452,5.85338 36.07052,5.35927 -16.83798,37.17278 -31.28139,78.98266 -34.24609,102.35818 -1.78642,13.79726 1.7104,20.90494 5.70135,24.0977 1.97646,1.44434 3.15474,1.06425 3.8009,-1.55837 4.75112,-19.42259 9.3122,-33.33388 13.68323,-46.21892 20.18277,31.66148 35.5764,59.59808 54.12479,68.75824 15.6597,9.04614 36.03251,10.64252 52.56642,5.28325 7.82985,-2.58461 11.4407,-7.41175 11.8588,-9.7303 0.60814,-2.50859 -1.06425,-3.8009 -3.3828,-2.88868"
       style="fill:#1f1a1c;fill-rule:nonzero;stroke:none" />
  </g>
</svg>
