<?xml version="1.0" encoding="utf-8"?>
<!-- Generator: Adobe Illustrator 21.0.0, SVG Export Plug-In . SVG Version: 6.00 Build 0)  -->
<svg version="1.1" id="Layer_1" xmlns="http://www.w3.org/2000/svg" xmlns:xlink="http://www.w3.org/1999/xlink" x="0px" y="0px"
	 viewBox="0 0 232 232" style="enable-background:new 0 0 232 232;" xml:space="preserve">
<style type="text/css">
	.st0{fill:#FFFFFF;}
</style>
<title>favicon sparrow</title>
<g id="Layer_2">
	<g id="Layer_1-2">
		<path class="st0" d="M112.3,103.8L34.1,182c-3.7,3.7-9.6,3.7-13.3,0.1c-0.4-0.4-0.8-0.9-1.1-1.4C-16.1,127.5-2,55.5,51.1,19.7
			c39.2-26.3,90.4-26.3,129.5,0c4.3,2.9,5.4,8.8,2.4,13.1c-0.3,0.5-0.7,0.9-1.1,1.3l-3.2,3.2c-8.8,8.8-21.4,11.2-33.5,8.2
			c-3.9-1-8-1.1-11.9-0.4c-15,2.8-24.9,17.3-22.1,32.3c0.6,3.1,1.7,6,3.2,8.7C117.9,91.9,117,99.1,112.3,103.8z"/>
		<path class="st0" d="M232,116c0,64.1-51.9,116-116,116c-24,0-47.4-7.4-67-21.3c-4.3-3-5.3-8.9-2.3-13.2c1-1.4,2.4-2.5,4-3.2
			c5.9-2.6,12.2-3.8,17.8-1.7c10.1,3.9,20.6,7.8,32.2,7.8c38.7,0,70.1-31.4,70.1-70.1c0-10.3-2.3-20.5-6.6-29.8
			c-4.9-10.1-3-22.3,4.9-30.3l12.9-12.8l12.4-12.4c3.7-3.7,9.7-3.7,13.4,0c0.3,0.3,0.6,0.6,0.8,0.9C223.8,65.9,232.1,90.6,232,116z"
			/>
	</g>
</g>
</svg>
