<?xml version="1.0" encoding="utf-8"?>
<!-- Generator: Adobe Illustrator 21.0.0, SVG Export Plug-In . SVG Version: 6.00 Build 0)  -->
<svg version="1.1" id="Layer_1" xmlns="http://www.w3.org/2000/svg" xmlns:xlink="http://www.w3.org/1999/xlink" x="0px" y="0px"
	 viewBox="0 0 224.3 224.3" style="enable-background:new 0 0 224.3 224.3;" xml:space="preserve">
<style type="text/css">
	.st0{fill:#FFFFFF;}
</style>
<title>favicon sparrow 2</title>
<g id="Layer_2">
	<g id="Layer_1-2">
		<path class="st0" d="M47.7,146.6c-14.5,14.5-39.5,8.2-45.3-11.5l0,0c-1.5-7-2.2-14.1-2.4-21.3C-0.9,52.4,48.6,1.1,110.1,0
			c19-0.4,37.8,4.1,54.5,13c4.5,2.3,6.2,7.9,3.8,12.3c-0.4,0.8-1,1.5-1.6,2.2l-4.2,4.2c-9.1,9.1-22.1,12.3-34.8,10
			c-3-0.5-6.1-0.5-9.1,0c-10.2,1.9-18.1,9.9-20,20.1c-0.7,4-0.5,8.2,0.8,12.1c2.9,9.3,1.6,19.5-5.4,26.4L47.7,146.6z"/>
		<path class="st0" d="M224.3,114.5c-1.3,60.8-51.7,110-112.6,109.8c-27.6-0.1-54.1-10.3-74.6-28.8c-3.9-3.5-4.1-9.5-0.6-13.3
			c0.4-0.4,0.8-0.8,1.3-1.2l6.2-4.7c5.3-2.4,11-3.5,16-1.5c9.1,3.5,18.6,7,29.1,7c35,0,63.3-28.4,63.3-63.3c0-9.3-2-18.4-6-26.8
			c-4.5-9.1-2.7-20.1,4.4-27.4l11.6-11.6l11.2-11.2l7-6.7c3.6-3.5,9.4-3.4,12.9,0.3c0,0,0.1,0.1,0.1,0.1
			C214,56.5,225,85,224.3,114.5z"/>
	</g>
</g>
</svg>
