<svg xmlns="http://www.w3.org/2000/svg" viewBox="0 0 551 551"><title>Asset 1sparrow</title><g id="Layer_2" data-name="Layer 2"><g id="Layer_1-2" data-name="Layer 1"><path d="M213.31,532.88a210.6,210.6,0,0,1-40.51-30.78l40.11-62.35a32.42,32.42,0,0,1,12.44-11.44A35.68,35.68,0,0,1,242.59,424q12,0,24.27,7.5T294.54,448A225.84,225.84,0,0,0,330,464.61q20.05,7.5,47.33,7.5,36.9,0,57.36-16t20.46-50.71q0-20.13-11.23-32.75t-29.48-20.92A275.23,275.23,0,0,0,373,337.15q-23.27-6.31-47.73-14a352.19,352.19,0,0,1-47.73-18.94A150.5,150.5,0,0,1,236,274.6q-18.26-18.35-29.48-45.77t-11.23-67.68A158.36,158.36,0,0,1,208.5,98a163,163,0,0,1,38.91-54.85q25.67-24.07,63-38.47,6.67-2.58,13.7-4.69H92.23C41.51,0,0,41.51,0,92.23V458.77C0,509.49,41.51,551,92.23,551H248.92A312.82,312.82,0,0,1,213.31,532.88Z"/><path d="M541,113.4q-6,9.47-12.63,14.21t-17,4.74q-9.23,0-19.86-5.72T467.43,113.8A202.1,202.1,0,0,0,436.74,101q-17.25-5.72-39.31-5.72-38.11,0-56.76,16T322,154.44q0,17.37,11.23,28.81T362.73,203a318.67,318.67,0,0,0,41.72,15.19q23.47,6.91,47.94,15.39a434,434,0,0,1,47.93,19.93A160,160,0,0,1,542,282.69a125.86,125.86,0,0,1,9,9.7V95.08Z"/></g></g></svg>