<svg xmlns="http://www.w3.org/2000/svg" viewBox="0 0 483 483"><defs><style>.cls-1{fill:#fff;}</style></defs><title>Asset 4sparrow</title><g id="Layer_2" data-name="Layer 2"><g id="Layer_1-2" data-name="Layer 1"><path class="cls-1" d="M469.15,47.34q-12.65-6.91-28.64-15.51A238.38,238.38,0,0,0,404,16.31Q383.45,9.39,357.2,9.39q-45.36,0-67.55,19.33T267.46,81q0,21,13.37,34.85t35.09,23.87a375.3,375.3,0,0,0,49.65,18.38q27.93,8.36,57,18.62a511.88,511.88,0,0,1,57,24.11q1.69.84,3.35,1.7V53A59.51,59.51,0,0,1,469.15,47.34Z"/><path class="cls-1" d="M137.61,426.14a38.84,38.84,0,0,1,14.8-13.84A41.94,41.94,0,0,1,172.94,407q14.32,0,28.88,9.07t32.94,20a266.85,266.85,0,0,0,42.25,20q23.86,9.07,56.33,9.07,43.91,0,68.26-19.33t24.35-61.34q0-24.35-13.37-39.62t-35.09-25.3A323.93,323.93,0,0,0,328.08,302q-27.69-7.63-56.81-16.95a415.31,415.31,0,0,1-56.81-22.91,179.23,179.23,0,0,1-49.41-35.8Q143.33,204.16,130,171T116.6,89.11a194.28,194.28,0,0,1,15.75-76.38q2.75-6.49,6-12.73h-90A48.48,48.48,0,0,0,0,48.34V434.66A48.48,48.48,0,0,0,48.34,483h53.28Z"/></g></g></svg>