<?xml version="1.0" encoding="utf-8"?>
<!-- Generator: Adobe Illustrator 21.0.0, SVG Export Plug-In . SVG Version: 6.00 Build 0)  -->
<svg version="1.1" id="Layer_1" xmlns="http://www.w3.org/2000/svg" xmlns:xlink="http://www.w3.org/1999/xlink" x="0px" y="0px"
	 viewBox="0 0 39.9 39.9" style="enable-background:new 0 0 39.9 39.9;" xml:space="preserve">
<style type="text/css">
	.st0{fill:#FFFFFF;}
</style>
<title>sparrow sqr</title>
<g id="Layer_2">
	<g id="Layer_1-2">
		<path class="st0" d="M30.9,26.6l5,5c0.9,0.9,2.4,0.9,3.3,0c0.5-0.4,0.7-1.1,0.7-1.7V6.5C39.9,2.9,37,0,33.4,0H8.6
			c-1,0-1.8,0.8-1.8,1.8c0,0.5,0.2,0.9,0.5,1.3l1.1,1.1c1.8,1.7,4.3,2.5,6.8,2C15.8,6,16.5,6,17,6.1c2.6,0.5,4.4,3,3.9,5.7
			c0,0.2-0.1,0.4-0.1,0.6c-0.7,1.8-0.2,3.8,1,5.1L30.9,26.6z"/>
		<path class="st0" d="M0,4.9v28.7c0,3.5,2.8,6.3,6.3,6.3h0h27.3c1.2,0,2.2-1,2.2-2.2c0-0.6-0.2-1.2-0.7-1.6l0,0
			c-2.2-2.2-5.2-3.4-8.2-3.2C25.2,33,23.5,33,22.7,33c-6.6,0-11.9-5.3-11.9-11.9c0-1.7,0.4-3.5,1.1-5.1c0.8-1.7,0.5-3.8-0.8-5.1L4,4
			C3.1,3.1,1.5,3,0.6,4C0.3,4.2,0.1,4.6,0,4.9z"/>
	</g>
</g>
</svg>
