<svg xmlns="http://www.w3.org/2000/svg" viewBox="0 0 89.95 89.95"><defs><style>.cls-1{fill:none;stroke:#000;stroke-linecap:round;stroke-linejoin:round;stroke-width:3.5px;}</style></defs><title>Asset 1</title><g id="Layer_2" data-name="Layer 2"><g id="Layer_1-2" data-name="Layer 1"><g id="Desktop-HD"><g id="Group-23"><g id="Group-3"><g id="history-button"><g id="Capa_1" data-name="Capa 1"><g id="Group"><path id="Shape" d="M78.9,0H11.05A11.07,11.07,0,0,0,0,11.05V78.9A11.07,11.07,0,0,0,11.05,90a1.83,1.83,0,0,0,0-3.66A7.4,7.4,0,0,1,3.66,78.9V11.05a7.4,7.4,0,0,1,7.39-7.39H78.9a7.4,7.4,0,0,1,7.39,7.39V78.9a7.4,7.4,0,0,1-7.39,7.39H30.64a1.83,1.83,0,0,0,0,3.66H78.9A11.07,11.07,0,0,0,90,78.9V11.05A11.07,11.07,0,0,0,78.9,0Z"/></g></g></g></g></g></g><path class="cls-1" d="M50.27,19.62a11.65,11.65,0,0,1,4.92,1,12.74,12.74,0,0,1,3.92,2.77,13.22,13.22,0,0,1,2.62,4,11.86,11.86,0,0,1,1,4.69,12.55,12.55,0,0,1-1.57,6.17,12.11,12.11,0,0,1-4.36,4.55,13.11,13.11,0,0,1,5.41,5,13.46,13.46,0,0,1-1.89,16.6,13.91,13.91,0,0,1-4.22,2.88,12.51,12.51,0,0,1-5.15,1.07H31.79V19.62Z"/><line class="cls-1" x1="56.36" y1="43.04" x2="32.62" y2="43.04"/></g></g></svg>