<?xml version="1.0" encoding="UTF-8"?>
<svg width="90px" height="90px" viewBox="0 0 90 90" version="1.1" xmlns="http://www.w3.org/2000/svg" xmlns:xlink="http://www.w3.org/1999/xlink">
    <!-- Generator: Sketch 48.2 (47327) - http://www.bohemiancoding.com/sketch -->
    <title>history-button</title>
    <desc>Created with Sketch.</desc>
    <defs></defs>
    <g id="Desktop-HD" stroke="none" stroke-width="1" fill="none" fill-rule="evenodd" transform="translate(-680.000000, -1373.000000)">
        <g id="Group-23" transform="translate(165.000000, 1174.000000)" fill="#000000">
            <g id="Group-3" transform="translate(389.000000, 199.000000)">
                <g id="history-button" transform="translate(126.000000, 0.000000)">
                    <g id="Capa_1">
                        <g id="Group">
                            <path d="M78.8979661,0 L11.0541356,0 C4.95884746,0 0,4.95884746 0,11.0538305 L0,78.8979661 C0,84.9932542 4.95884746,89.9517966 11.0538305,89.9517966 C12.0645763,89.9517966 12.884339,89.1320339 12.884339,88.1212881 C12.884339,87.1105424 12.0645763,86.2907797 11.0538305,86.2907797 C6.97759322,86.2910847 3.66101695,82.9745085 3.66101695,78.8979661 L3.66101695,11.0538305 C3.66101695,6.97759322 6.97759322,3.66101695 11.0541356,3.66101695 L78.8979661,3.66101695 C82.9745085,3.66101695 86.2907797,6.97759322 86.2907797,11.0538305 L86.2907797,78.8979661 C86.2907797,82.9745085 82.9745085,86.2907797 78.8979661,86.2907797 L30.6372203,86.2907797 C29.6264746,86.2907797 28.8067119,87.1105424 28.8067119,88.1212881 C28.8067119,89.1320339 29.6264746,89.9517966 30.6372203,89.9517966 L78.8979661,89.9517966 C84.9932542,89.9517966 89.9517966,84.9929492 89.9517966,78.8979661 L89.9517966,11.0538305 C89.9521017,4.95884746 84.9932542,0 78.8979661,0 L78.8979661,0 Z" id="Shape"></path>
                            <path d="M44.9762034,15.8619661 C43.9654576,15.8619661 43.1456949,16.6817288 43.1456949,17.6924746 L43.1456949,44.9762034 C43.1456949,45.4615932 43.3385085,45.9271525 43.6817288,46.270678 L74.1902034,76.7791525 C74.5474576,77.1364068 75.0160678,77.3151864 75.4843729,77.3151864 C75.952678,77.3151864 76.4212881,77.1364068 76.7785424,76.7791525 C77.493661,76.064339 77.493661,74.905322 76.7785424,74.1905085 L46.8064068,44.2180678 L46.8064068,17.6924746 C46.8067119,16.6814237 45.9869492,15.8619661 44.9762034,15.8619661 L44.9762034,15.8619661 Z" id="Shape"></path>
                        </g>
                    </g>
                </g>
            </g>
        </g>
    </g>
</svg>