<?xml version="1.0" encoding="utf-8"?>
<!-- Generator: Adobe Illustrator 21.0.0, SVG Export Plug-In . SVG Version: 6.00 Build 0)  -->
<svg version="1.1" id="Layer_1" xmlns="http://www.w3.org/2000/svg" xmlns:xlink="http://www.w3.org/1999/xlink" x="0px" y="0px"
	 viewBox="0 0 512 512" style="enable-background:new 0 0 512 512;" xml:space="preserve">
<style type="text/css">
	.st0{fill:#FFFFFF;}
</style>
<g>
	<g>
		<g>
			<path class="st0" d="M10.4,69.9h44.6l13.8,13.8H45.2c-5.8,0-10.4,4.7-10.4,10.4s4.7,10.4,10.4,10.4h44.6l18.5,18.5H84.6
				c-5.8,0-10.4,4.7-10.4,10.4c0,5.8,4.7,10.4,10.4,10.4l44.6,0l112,112L78.8,418.4l-26-26c-2-2-4.6-3.1-7.4-3.1
				c-0.8,0-1.6,0.1-2.4,0.3c-3.5,0.8-6.4,3.4-7.5,6.8l-35,101.7c-1.3,3.8-0.3,8,2.5,10.8c2.8,2.8,7,3.8,10.8,2.5l101.7-35
				c3.4-1.2,6-4,6.8-7.5c0.8-3.5-0.2-7.2-2.8-9.7l-26-26L256,270.8l162.4,162.4l-26,26c-2.5,2.5-3.6,6.2-2.8,9.7
				c0.8,3.5,3.4,6.4,6.8,7.5l101.7,35c3.8,1.3,8,0.3,10.8-2.5s3.8-7,2.5-10.8l-35-101.7c-1.2-3.4-4-6-7.5-6.8
				c-0.8-0.2-1.6-0.3-2.4-0.3c-2.7,0-5.4,1.1-7.4,3.1l-26,26L270.8,256l112-112l44.6,0c5.8,0,10.4-4.7,10.4-10.4
				c0-5.8-4.7-10.4-10.4-10.4h-23.7l18.5-18.5h44.6c5.8,0,10.4-4.7,10.4-10.4s-4.7-10.4-10.4-10.4h-23.7l13.8-13.8h44.6
				c5.8,0,10.4-4.7,10.4-10.4S507.3,49,501.6,49h-23.7l6.8-6.8c4.1-4.1,4.1-10.7,0-14.8c-2-2-4.7-3.1-7.4-3.1s-5.3,1-7.4,3.1
				l-6.8,6.8V10.4C463,4.7,458.4,0,452.6,0c-5.8,0-10.4,4.7-10.4,10.4v44.6l-13.8,13.8V45.2c0-5.8-4.7-10.4-10.4-10.4
				s-10.4,4.7-10.4,10.4v44.6l-18.5,18.5V84.6c0-5.8-4.7-10.4-10.4-10.4S368,78.8,368,84.6l0,44.6l-112,112l-112-112l0-44.6
				c0-5.8-4.7-10.4-10.4-10.4c-5.8,0-10.4,4.7-10.4,10.4v23.7l-18.5-18.5V45.2c0-5.8-4.7-10.4-10.4-10.4c-5.8,0-10.4,4.7-10.4,10.4
				v23.7L69.9,55.1V10.4C69.9,4.7,65.2,0,59.4,0C53.6,0,49,4.7,49,10.4v23.7l-6.8-6.8c-2-2-4.7-3.1-7.4-3.1c-2.7,0-5.3,1-7.4,3.1
				c-4.1,4.1-4.1,10.7,0,14.8l6.8,6.8H10.4C4.7,49,0,53.6,0,59.4C0,65.2,4.7,69.9,10.4,69.9z M27.3,484.7L49.9,419L64,433.2
				l-9.5,9.5c-4.1,4.1-4.1,10.7,0,14.8c4.1,4.1,10.7,4.1,14.8,0l9.5-9.5L93,462.1L27.3,484.7z M433.2,448l9.5,9.5
				c4.1,4.1,10.7,4.1,14.8,0c4.1-4.1,4.1-10.7,0-14.8l-9.5-9.5l14.2-14.2l22.6,65.7L419,462.1L433.2,448z"/>
		</g>
	</g>
	<g>
		<g>
			<path class="st0" d="M214,110.5l34.6,34.6c4.1,4.1,10.7,4.1,14.8,0l34.6-34.6c4.1-4.1,4.1-10.7,0-14.8c-4.1-4.1-10.7-4.1-14.8,0
				L256,123l-27.2-27.2c-2-2-4.7-3.1-7.4-3.1c-2.7,0-5.3,1-7.4,3.1C209.9,99.8,209.9,106.5,214,110.5z"/>
		</g>
	</g>
	<g>
		<g>
			<path class="st0" d="M214,62.8l34.6,34.6c4.1,4.1,10.7,4.1,14.8,0L298,62.8c4.1-4.1,4.1-10.7,0-14.8c-4.1-4.1-10.7-4.1-14.8,0
				L256,75.2L228.8,48c-2-2-4.7-3.1-7.4-3.1c-2.7,0-5.3,1-7.4,3.1C209.9,52.1,209.9,58.7,214,62.8z"/>
		</g>
	</g>
	<g>
		<g>
			<path class="st0" d="M97.3,362.4c4.1,4.1,10.7,4.1,14.8,0l3.3-3.3c4.1-4.1,4.1-10.7,0-14.8c-2-2-4.7-3.1-7.4-3.1
				c-2.7,0-5.3,1-7.4,3.1l-3.3,3.3C93.2,351.7,93.2,358.3,97.3,362.4z"/>
		</g>
	</g>
	<g>
		<g>
			<path class="st0" d="M124.5,335.2c4.1,4.1,10.7,4.1,14.8,0l71.8-71.8c4.1-4.1,4.1-10.7,0-14.8c-2-2-4.7-3.1-7.4-3.1
				s-5.3,1-7.4,3.1l-71.8,71.8C120.4,324.5,120.4,331.1,124.5,335.2z"/>
		</g>
	</g>
</g>
</svg>
