<?xml version="1.0" encoding="utf-8"?>
<!-- Generator: Adobe Illustrator 21.0.0, SVG Export Plug-In . SVG Version: 6.00 Build 0)  -->
<svg version="1.1" id="Layer_1" xmlns="http://www.w3.org/2000/svg" xmlns:xlink="http://www.w3.org/1999/xlink" x="0px" y="0px"
	 viewBox="0 0 512 443" style="enable-background:new 0 0 512 443;" xml:space="preserve">
<style type="text/css">
	.st0{fill:#FFFFFF;}
</style>
<g>
	<g>
		<g>
			<path class="st0" d="M266.5,16c0-5.8-4.7-10.5-10.5-10.5c-2.8,0-5.5,1.1-7.4,3c-1.9,1.9-3,4.5-3,7.4l-0.1,303h-36.8
				c-2.8,0-5.4,1.1-7.4,3c-0.6,0.6-1.1,1.2-1.5,1.9c-1.9,3-2.1,6.9-0.5,10.1l47.2,96.7c1.8,3.6,5.4,5.9,9.4,5.9c4,0,7.6-2.3,9.4-5.9
				l47.2-96.7c1.6-3.3,1.4-7.1-0.5-10.1s-5.2-4.9-8.8-4.9h-36.8 M266.5,68.5v31.6 M256,402.4l-30.5-62.4l20,0.1v13.4
				c0,5.8,4.7,10.5,10.5,10.5c5.8,0,10.5-4.7,10.5-10.5V340l20-0.1L256,402.4z"/>
		</g>
	</g>
</g>
</svg>
