<?xml version="1.0" encoding="iso-8859-1"?>
<!-- Generator: Adobe Illustrator 19.0.0, SVG Export Plug-In . SVG Version: 6.00 Build 0)  -->
<svg version="1.1" id="Layer_1" xmlns="http://www.w3.org/2000/svg" xmlns:xlink="http://www.w3.org/1999/xlink" x="0px" y="0px"
	 viewBox="0 0 512 512" style="enable-background:new 0 0 512 512;" xml:space="preserve">
<g>
	<g>
		<path d="M502,178.294h-35.382c3.669-14.277,5.552-28.964,5.552-43.711V59.828H502c5.523,0,10-4.477,10-10s-4.477-10-10-10h-32.291
			c-4.008-8.271-12.488-13.988-22.278-13.988c-4.073,0-7.919,0.989-11.311,2.74c-4.71-5.25-11.544-8.558-19.136-8.558
			c-3.019,0-5.918,0.523-8.611,1.483c-4.269-8.137-12.802-13.701-22.611-13.701c-8.785,0-16.548,4.463-21.139,11.241
			c-3.153-1.368-6.628-2.126-10.278-2.126c-13.27,0-24.235,10.032-25.724,22.909H218.958c-5.523,0-10,4.477-10,10v3.57l-10.661-2.92
			V11.321c0-5.523-4.477-10-10-10s-10,4.477-10,10V45.07c-13.896-3.466-28.171-5.242-42.503-5.242H59.83V11.211
			c0-5.523-4.477-10-10-10s-10,4.477-10,10V42.92c-7.613,4.223-12.78,12.341-12.78,21.646c0,4.073,0.989,7.919,2.74,11.311
			c-5.25,4.71-8.558,11.543-8.558,19.136c0,3.019,0.523,5.918,1.483,8.612c-8.137,4.269-13.701,12.802-13.701,22.611
			c0,8.785,4.463,16.548,11.241,21.139c-1.368,3.153-2.126,6.628-2.126,10.278c0,12.852,9.41,23.542,21.7,25.556v111.043
			c0,5.523,4.477,10,10,10H53.4l-2.589,9.453H10c-5.523,0-10,4.477-10,10s4.477,10,10,10h35.382
			c-3.669,14.277-5.552,28.964-5.552,43.711v74.755H10c-5.523,0-10,4.477-10,10s4.477,10,10,10h32.291
			c4.008,8.271,12.487,13.988,22.278,13.988c4.073,0,7.919-0.989,11.311-2.74c4.71,5.25,11.544,8.558,19.136,8.558
			c3.019,0,5.918-0.523,8.612-1.483c4.269,8.137,12.802,13.701,22.611,13.701c8.785,0,16.548-4.463,21.139-11.241
			c3.153,1.368,6.628,2.126,10.278,2.126c13.27,0,24.235-10.032,25.724-22.909h109.662c5.523,0,10-4.477,10-10v-3.57l10.661,2.92
			v39.267c0,5.523,4.477,10,10,10s10-4.477,10-10V466.93c13.896,3.466,28.171,5.242,42.503,5.242h75.964v28.617
			c0,5.523,4.477,10,10,10s10-4.477,10-10V469.08c7.613-4.223,12.779-12.341,12.779-21.647c0-4.073-0.989-7.919-2.74-11.311
			c5.25-4.71,8.558-11.543,8.558-19.136c0-3.019-0.523-5.918-1.483-8.612c8.137-4.269,13.701-12.802,13.701-22.611
			c0-8.785-4.463-16.548-11.241-21.139c1.368-3.153,2.126-6.628,2.126-10.278c0-12.852-9.41-23.542-21.7-25.556V217.747
			c0-5.523-4.477-10-10-10h-3.57l2.589-9.453H502c5.523,0,10-4.477,10-10C512,182.771,507.523,178.294,502,178.294z
			 M338.441,128.066c5.523,0,10-4.477,10-10V42.821c0-3.254,2.648-5.902,5.902-5.902c3.254,0,5.902,2.648,5.902,5.902v22.884
			c0,5.523,4.477,10,10,10s10-4.477,10-10V33.318c0-3.041,2.474-5.515,5.515-5.515s5.515,2.474,5.515,5.515v31.223
			c0,5.523,4.477,10,10,10s10-4.477,10-10V45.73c0-3.147,2.561-5.708,5.708-5.708c3.147,0,5.708,2.561,5.708,5.708v19.587
			c0,5.523,4.477,10,10,10s10-4.477,10-10V50.578c0-2.613,2.126-4.739,4.739-4.739c2.613,0,4.739,2.126,4.739,4.739v84.005
			c0,13.885-1.86,27.715-5.528,41.106l-8.78,32.058h-89.419v-4.515c0-7.238-1.921-14.371-5.557-20.629l-23.225-39.982
			c-1.217-2.094-1.86-4.481-1.86-6.904v-26.572c0-7.756,4.3-14.526,10.641-18.053v26.974
			C328.441,123.589,332.918,128.066,338.441,128.066z M44.032,163.556c-3.254,0-5.902-2.648-5.902-5.902
			c0-3.254,2.648-5.902,5.902-5.902h22.884c5.523,0,10-4.477,10-10s-4.478-10.001-10-10.001H34.529
			c-3.041,0-5.515-2.474-5.515-5.515c0-3.041,2.474-5.515,5.515-5.515h31.223c5.523,0,10-4.477,10-10s-4.477-10-10-10H46.941
			c-3.147,0-5.708-2.561-5.708-5.708c0-3.147,2.561-5.708,5.708-5.708h19.587c5.523,0,10-4.477,10-10s-4.477-10-10-10H51.789
			c-2.613,0-4.739-2.126-4.739-4.739c0-2.613,2.126-4.739,4.739-4.739h84.004c13.886,0,27.716,1.859,41.107,5.527l32.058,8.78
			v89.421h-4.515c-7.238,0-14.371,1.921-20.629,5.557l-39.982,23.225c-2.094,1.217-4.481,1.86-6.904,1.86h-26.572
			c-7.756,0-14.526-4.3-18.053-10.641h26.974c5.523,0,10-4.477,10-10c0-5.523-4.477-10-10-10H44.032z M173.56,383.933
			c-5.523,0-10,4.477-10,10v75.246h-0.002c0,3.254-2.648,5.902-5.902,5.902c-3.254,0-5.902-2.648-5.902-5.902v-22.884
			c0-5.523-4.477-10-10-10s-10,4.477-10,10v32.386c0,3.041-2.474,5.515-5.515,5.515s-5.515-2.474-5.515-5.515v-31.223
			c0-5.523-4.477-10-10-10s-10,4.477-10,10v18.811c0,3.147-2.561,5.708-5.708,5.708c-3.147,0-5.708-2.561-5.708-5.708v-19.587
			c0-5.523-4.477-10-10-10c-5.523,0-10,4.477-10,10v14.739c0,2.613-2.126,4.739-4.739,4.739c-2.613,0-4.739-2.126-4.739-4.739
			v-84.005c0-13.885,1.86-27.715,5.528-41.106l8.78-32.058h89.421v4.515c0,7.238,1.921,14.371,5.557,20.629l23.225,39.982
			c1.217,2.094,1.86,4.481,1.86,6.904v26.572c0,7.756-4.3,14.526-10.641,18.053v-26.974
			C183.56,388.41,179.083,383.933,173.56,383.933z M293.043,313.706h-72.33c-5.523,0-10,4.477-10,10s4.477,10,10,10h62.33v118.466
			h-0.001h-99.484v-9.921c17.59-4.467,30.641-20.437,30.641-39.396v-26.572c0-5.947-1.579-11.809-4.566-16.95l-23.225-39.982
			c-1.865-3.21-2.851-6.87-2.851-10.583v-4.515h4.739c5.523,0,10-4.477,10-10v-62.758c0-5.523-4.477-10-10-10
			c-5.523,0-10,4.477-10,10v52.758H59.83V183.556h11.13c4.467,17.59,20.437,30.641,39.396,30.641h26.572
			c5.947,0,11.809-1.579,16.95-4.566l39.982-23.225c3.21-1.865,6.87-2.851,10.583-2.851h4.515v4.739c0,5.523,4.477,10,10,10h69.987
			c5.523,0,10-4.477,10-10s-4.477-10-10-10h-59.987V59.828h99.484v9.921c-17.59,4.467-30.641,20.437-30.641,39.396v26.572
			c0,5.947,1.579,11.809,4.566,16.95l23.225,39.982c1.865,3.21,2.851,6.87,2.851,10.583v4.515h-4.739c-5.523,0-10,4.477-10,10
			v70.962c0,5.523,4.477,10,10,10s10-4.477,10-10v-60.962h111.758c0.012,0,0.024,0.002,0.037,0.002c0.02,0,0.039-0.002,0.059-0.002
			h6.613v100.697h-11.13c-4.467-17.59-20.437-30.641-39.396-30.641h-26.572c-5.947,0-11.809,1.579-16.95,4.566l-39.982,23.225
			c-3.21,1.865-6.87,2.851-10.583,2.851h-4.515v-4.739C303.043,318.183,298.566,313.706,293.043,313.706z M467.968,348.444
			c3.254,0,5.902,2.648,5.902,5.902c0,3.254-2.648,5.902-5.902,5.902h-22.884c-5.523,0-10,4.477-10,10s4.478,10.001,10,10.001
			h32.386c3.041,0,5.515,2.474,5.515,5.515s-2.474,5.515-5.515,5.515h-31.223c-5.523,0-10,4.477-10,10s4.477,10,10,10h18.811
			c3.147,0,5.708,2.561,5.708,5.708c0,3.147-2.561,5.708-5.708,5.708h-19.587c-5.523,0-10,4.477-10,10s4.477,10,10,10h14.739
			c2.613,0,4.739,2.126,4.739,4.739c0,2.613-2.126,4.739-4.739,4.739h-84.005c-13.886,0-27.716-1.859-41.106-5.527l-32.058-8.78
			v-89.421h4.515c7.238,0,14.371-1.921,20.629-5.557l39.982-23.225c2.094-1.217,4.481-1.86,6.904-1.86h26.572
			c7.756,0,14.526,4.3,18.053,10.641h-26.974c-5.523,0-10,4.477-10,10s4.477,10,10,10H467.968z"/>
	</g>
</g>
<g>
	<g>
		<circle cx="154.79" cy="262.16" r="10"/>
	</g>
</g>
<g>
	<g>
		<circle cx="154.79" cy="228.81" r="10"/>
	</g>
</g>
<g>
	<g>
		<circle cx="262.78" cy="355.83" r="10"/>
	</g>
</g>
<g>
	<g>
		<circle cx="229.44" cy="355.83" r="10"/>
	</g>
</g>
<g>
	<g>
		<circle cx="357.19" cy="248.01" r="10"/>
	</g>
</g>
<g>
	<g>
		<circle cx="357.19" cy="281.35" r="10"/>
	</g>
</g>
<g>
	<g>
		<circle cx="250.77" cy="159.37" r="10"/>
	</g>
</g>
<g>
	<g>
		<circle cx="284.11" cy="159.37" r="10"/>
	</g>
</g>
<g>
</g>
<g>
</g>
<g>
</g>
<g>
</g>
<g>
</g>
<g>
</g>
<g>
</g>
<g>
</g>
<g>
</g>
<g>
</g>
<g>
</g>
<g>
</g>
<g>
</g>
<g>
</g>
<g>
</g>
</svg>
