<svg xmlns="http://www.w3.org/2000/svg" viewBox="0 0 511.5 340.44"><defs><style>.cls-1{fill:#d4d4d4;}.cls-2{fill:#c7c7c7;}.cls-3{fill:#ffab78;}.cls-10,.cls-11,.cls-15,.cls-18,.cls-20,.cls-21,.cls-22,.cls-23,.cls-25,.cls-26,.cls-27,.cls-4,.cls-6{fill:none;}.cls-10,.cls-4{stroke:#c7c7c7;}.cls-10,.cls-11,.cls-15,.cls-18,.cls-19,.cls-20,.cls-23,.cls-25,.cls-26,.cls-27,.cls-4,.cls-6{stroke-miterlimit:10;}.cls-10,.cls-27,.cls-4,.cls-6{stroke-width:3px;}.cls-5{fill:#d0021b;}.cls-6{stroke:#d4d4d4;}.cls-11,.cls-15,.cls-20,.cls-21,.cls-23,.cls-25,.cls-26,.cls-27,.cls-6{stroke-linecap:round;}.cls-7{fill:#f5d9c4;}.cls-8{fill:#3e4651;}.cls-9{fill:#e1b493;}.cls-10{stroke-linecap:square;}.cls-11{stroke:#ffab78;stroke-width:4px;}.cls-12{fill:#73b1d6;}.cls-13{fill:#b8959b;}.cls-14{fill:#836d6f;}.cls-15{stroke:#969696;stroke-width:0.9px;}.cls-16{fill:#adadad;}.cls-17{fill:#b8cbd6;}.cls-18,.cls-20,.cls-21,.cls-22,.cls-23{stroke:#0c0c0c;}.cls-18{stroke-width:1.83px;}.cls-19{fill:#fff;}.cls-19,.cls-25,.cls-26{stroke:#000;}.cls-20{stroke-width:2.2px;stroke-dasharray:0 3.61;}.cls-21,.cls-22{stroke-linejoin:round;}.cls-21,.cls-22,.cls-23{stroke-width:1.83px;}.cls-24,.cls-26{opacity:0.29;}.cls-25,.cls-26{stroke-width:2.75px;}.cls-25{stroke-dasharray:0 9.05;}.cls-26{stroke-dasharray:0 12;}.cls-27{stroke:#3e4651;}</style></defs><title>Asset 2sparrow</title><g id="Layer_2" data-name="Layer 2"><g id="Layer_1-2" data-name="Layer 1"><path class="cls-1" d="M373.12,311.92,373,327.66H336.61v-.48a3.55,3.55,0,0,1,3.11-3.53c5.47-.66,16.12-3.13,18.14-10C357.87,313.61,367.12,308.17,373.12,311.92Z"/><path class="cls-1" d="M413.28,302.75c5.34,11.52-7,22.59-7,22.59s-5,4.69,2.84,1.57,20.33-14.81,23.41-26.23c-3.46-3.52-8-6.63-12-9.83C417.32,294.53,414.18,297.81,413.28,302.75Z"/><path class="cls-2" d="M335.61,143.25l-4.6,1.54s3.51,14.54,3,16.54,4,1.25,4.83-.58,4.58-10.58,4.58-10.58S339.53,141.93,335.61,143.25Z"/><path class="cls-3" d="M315.73,253.72c2.13-9.15,15.08-58,15.08-58s4.51-18.81,5.4-23.24,1.63-8.89,2.12-13.39a78.83,78.83,0,0,0,.4-13.78h0a.41.41,0,0,1,.38-.44c.16,0,6-1.27,6.84,5.7.78,4,0,11.17,0,11.17-2.45,15-12.62,36-16.42,58.16,0,0-2.87,16.73-11.58,31.92-.35.61-1.45,2.53-2,2.35A.5.5,0,0,1,315.73,253.72Z"/><line class="cls-4" x1="291.31" y1="261.21" x2="291.31" y2="312.71"/><path class="cls-4" d="M312.62,324.46V320a7.31,7.31,0,0,0-7.31-7.31h-28A7.31,7.31,0,0,0,270,320v4.44"/><line class="cls-4" x1="291.31" y1="312.71" x2="291.31" y2="324.46"/><circle class="cls-5" cx="269.83" cy="324.46" r="3.24"/><circle class="cls-5" cx="312.36" cy="324.75" r="3.24"/><circle class="cls-5" cx="291.09" cy="324.56" r="3.24"/><rect class="cls-3" x="266.5" y="254.83" width="49.61" height="7.12" rx="3.56" ry="3.56"/><rect class="cls-1" x="142.04" y="141.87" width="5.11" height="76.19" transform="matrix(0.99, -0.14, 0.14, 0.99, -24.32, 22.6)"/><polyline class="cls-6" points="144.59 181.37 128.82 181.37 128.82 222.36 137.68 222.36"/><path class="cls-5" d="M184.63,223s18.69-15.92,22.9,0Z"/><path class="cls-2" d="M233.2,256.31a63.49,63.49,0,0,1,1.3,14.13c-.22,10.37-2.87,21.88-3.66,35.1,0,0-.51,10.57.33,16.76,0,0,.08-.27.74,4.48v.85L202,327.49l.64-1.16a2.32,2.32,0,0,1,1.79-1.19,42.28,42.28,0,0,0,9-2.17,25,25,0,0,0,2.57-1.13,9.2,9.2,0,0,0,5-7.22c.35-3.28.68-7.4,1-11.12.56-7.27.69-24.42-1.06-28.57-3.49-8.31-1-39.52-1-39.52s12.1-4.38,14.8-4.38S236.3,253.22,233.2,256.31Z"/><path class="cls-2" d="M257.67,145.75s3,10.62,15.59,9.27l2.81-.07s-1.75,13.76-4,16c0,0-19.66-1.12-25.16-12.34C246.87,158.65,248.22,144.69,257.67,145.75Z"/><path class="cls-7" d="M266.18,172.11s-31.59,12.57-49.36,9.14a90.44,90.44,0,0,1-2.91,10.6s16.31,4.36,38.76.73,23-5.2,23-5.2S271.59,172.11,266.18,172.11Z"/><path class="cls-1" d="M216.39,192.37c-8-1-22.6-4.64-28.14-6,0,0-1.35,0-3.15.16h0c-2.61.2-6.17.68-7.74,1.8s-2.36,1.63-2.85,1.94a.58.58,0,0,1-.84-.27c-.4-1-.93-2.79.46-3.41s4.45-2,6.06-2.82h0c1.36-2.06.77-3.32.77-3.32l-3.71-2.34s-.29.58-4.87,1.45S167,178,167,178a49.37,49.37,0,0,0,4.36-3.38,27.34,27.34,0,0,0,2.63-2.52l7.72.25a56.9,56.9,0,0,0,9.35,5.36c3.85,1.49,27,4.53,27,4.53C218.92,185.12,216.39,192.37,216.39,192.37Z"/><path class="cls-8" d="M287.74,227.21l-8.31-2.7-7.52,2.7-38.66.94a33.81,33.81,0,0,0,2.1,13.35l32.07-6.69Z"/><path class="cls-1" d="M235.83,237l-13.47.78s-17.46,64.26-27.77,71.9c0,0-11.86,13.49-24.09,14.06a2.72,2.72,0,0,0-2.64,3l.06.58s17.22.77,30.35.1c3.88-8.54,9-18.71,12.44-22.88,7.29-8.94,12.18-21.31,16.63-29.95a54,54,0,0,0,5.15-15.46l9.64-2.49S242.65,239.52,235.83,237Z"/><path d="M315.78,236.26l-5.62,18.58s-16,2.91-30.76,1.78c-12.95-1-40.93,2.43-40.93,2.43s-4.19-22.13-3.73-27.38l37.59-3.89a27.4,27.4,0,0,1,5.66-1.33h20.77l6.4-1.33,8.12,1.83S318.59,229.44,315.78,236.26Z"/><path class="cls-8" d="M306.56,233.14s-1.18,6-6.63,7.21a10.37,10.37,0,0,0-7.22,5.21s6.32-2.66,8.76-3.33S307.33,236.69,306.56,233.14Z"/><path class="cls-9" d="M271.12,156c-.41,3.32-1.86,12.9-5.12,16.16,0,0,19.72,19.44,13.48,54.49,0,0,14,4.21,28.38,2.84,0,0,8.71-.71,8.38,6,0,0,12.2-34.53,4.54-55.81,0,0-6.73-17.67-19.54-21.62-14.28-4.4-22.62-3.37-28.83-3.23A1.32,1.32,0,0,0,271.12,156Z"/><path class="cls-1" d="M272.61,201.51c-13.83,3.74-27,6.94-41.42,6-3.24,4-6.52,7.8-10.09,11.5a1.13,1.13,0,0,0,1.12,1.88,5,5,0,0,0,1-.5c2.1-1.26,5.24-4.36,7.21-6.35a4,4,0,0,1,1,.25q-.4,3.31-.78,6.61c2.58,0,5.16.07,7.74.08a28.39,28.39,0,0,0,3.18-6.8c6.36-.12,13.74-.66,19.85-.72,5.29-.06,9.18-.13,14.2-.39C275,209.06,274.8,205.05,272.61,201.51Z"/><path class="cls-7" d="M315.85,189.58c-1.32,3.41-2.51,6.17-3.68,8.74a22.21,22.21,0,0,1-17.55,12.86c-7.07.85-14.17,2-21.27,2.5a37.32,37.32,0,0,0-2-13c6.39-2,11.36-2.12,17.86-5.14,1.73-.8,3.83-2,4.82-7.14s1.62-21.29,14.68-19.41C323.3,172.89,319,181.35,315.85,189.58Z"/><path class="cls-1" d="M255.38,153.35c-2.43,5.42-15.18,9.51-15.18,9.51-6.56,0-5.56-2.82-5.56-2.82,1.75-3.34,1.14-9.91,1.14-9.91s-4.67-.68-4.67-.68l-.62-1.87,5.06-5.95a76.53,76.53,0,0,1,.06-9.53c.2-9.09,21.56-1.33,24,1.85S256.67,150.5,255.38,153.35Z"/><path d="M266.57,139.25c.73.73-1.28,6.59-2.14,7.44s-2.55,5.27-2.55,5.27-5.62-1.75-5.23-9.72c0,0,1.49.39.94-6.24l-1.42.71a21.2,21.2,0,0,1-3.16,2.94v1.42L251.7,146s-1.81,1.63-3.12,1.13l-.44-1.44s1.62.07,1.62-.87a8.33,8.33,0,0,0-.43-2.19l.77-1.52-.65-2.23-1.35-1.17v0c.08-.36,1.13-5-.35-5s-5.3-1.2-6.67,1.36c0,0-1.71,2.91-4.62,0s-3.42,0-3.42,0-2.74-2.9,0-5.64.85-7.53.85-7.53,3,.77,4.28,2.06,3.59-2.65,5.13-2.06,4.19-1.62,6.33-1.62,6.07.34,6.07,1.11c0,0,.78,1.68,2.1,1.86,5.61.77,3.37,1.39,3.37,1.39s1.54,2.48,2.91,2.48,4.28,1.88,4.28,3.93S265.85,138.52,266.57,139.25Z"/><line class="cls-4" x1="139.9" y1="225.12" x2="160.63" y2="238.93"/><polyline class="cls-10" points="181.37 225.12 160.63 238.93 160.63 326.26"/><line class="cls-11" x1="69.81" y1="225.12" x2="251.45" y2="225.12"/><path class="cls-12" d="M425.36,329.39c-30.49,4.63-61,6.94-91.48,8.69s-61,2.38-91.48,2.36-61-.77-91.48-2.39-61-4.06-91.48-8.66v-1.3l45.74-.32,45.74-.11,91.48-.22,91.48.22,45.74.11,45.74.32Z"/><path class="cls-13" d="M344.61,105.25s1.19,27.19-2.75,31.13l-3,4.5,11,2.38,7.5-7.5S353.36,106.12,344.61,105.25Z"/><path class="cls-8" d="M353.27,162.87s-14.41,37,55.09,144.38c0,0,19.33-18,19.33-26.33,0,0-43-45.33-43-72.33s3.67-42.33,3.67-42.33S354.84,154.82,353.27,162.87Z"/><path d="M404.53,160.89s-21,48.11-22.07,65.61-6.84,77.75-3.59,85c0,0-8,2.5-28.25,2.5,0,0,8.75-44.5,8.75-66.5,0-18.4,2.1-51.1,2.79-61.3a12.57,12.57,0,0,0-1.08-6l-7.8-17.32S401.55,159.46,404.53,160.89Z"/><path class="cls-14" d="M354,78.31S339.2,89,340.86,97.73s20.06,31,12.41,65.14c0,0,19.59,13.62,50.84,0,0,0,10.58-45.12-11.25-67C392.86,95.91,367.61,73.75,354,78.31Z"/><path class="cls-1" d="M353.27,139.91H336.12a1.63,1.63,0,0,0-1.58,2.06,25.56,25.56,0,0,1,.28,13,3.28,3.28,0,0,0-.06.33,3.43,3.43,0,0,0,3.47,3.78h.11l2.2-12.14a1,1,0,0,1,1.82-.5l3.6,4.12,4.23-.84,7.17-2.9S357.34,141.58,353.27,139.91Z"/><path class="cls-13" d="M359.69,149.92l-5.66.16-.76-12.66,8.26.5s22.58-1.17,22.58-12.17c0-5.25-2.27-7.89-4.35-9.21a7,7,0,0,1-3-7.18c1.23-6.72,7.2-20.38,23.87-9.35a38.32,38.32,0,0,1,10.77,22.78C416,162.25,359.69,149.92,359.69,149.92Z"/><path class="cls-2" d="M338.44,66.76c1.88,7.46,5.86,12.62,13.47,14.56,2.25,4.4,3.52,8.85,1,13.4-4.54.74-10.25.34-13.34-3.19s-5.3-6.29-6.42-11S333.82,69.22,338.44,66.76Z"/><path class="cls-1" d="M314.41,64.87c.42,4.41,1.08,8.71,1.65,13.07l-2.74,5.65,4.79,1.75c1.59,2,3.2,4,4.8,5.95q-.35,4.07-.67,8.15l4.87-1.38q6.16-9,12.32-18.06c-.55-6.54-1-13-1.23-19.64-3.93-2.3-5.19-6.28-11-5.77S314.42,56.57,314.41,64.87Z"/><path class="cls-15" d="M320.69,72.95c4.5-1.65,9-3.35,13.47-5"/><path class="cls-16" d="M319.49,77a19.26,19.26,0,0,1-2.2.59,2.46,2.46,0,0,1-3-1.76h0a2.47,2.47,0,0,1,1.75-3,18.77,18.77,0,0,1,2.21-.59,2.46,2.46,0,0,1,3,1.76h0A2.47,2.47,0,0,1,319.49,77Z"/><path d="M315.87,65.16c-6-5.15-6.71-11.95,0-17.34s15.52-3.53,21.24,2.84c1.87.15,2.42-1.3,4.15-1.67s3.91-1.61,4.08,4.19.21,19.07-12.1,17C328.38,65,323,61.05,315.87,65.16Z"/><path class="cls-12" d="M511.5,329.39c-42.62,4.6-85.25,7-127.87,8.62l-16,.65-16,.47c-10.66.34-21.31.5-32,.74s-21.31.28-32,.43l-32,.13-32-.15c-10.66-.15-21.31-.21-32-.44s-21.31-.4-32-.74c-5.33-.16-10.66-.28-16-.48l-16-.64C85.25,336.35,42.63,334,0,329.39v-1.3l63.94-.32,63.94-.11,127.88-.22,127.88.22,63.94.11,63.94.32Z"/><polygon class="cls-17" points="138.5 52.12 149.75 40.25 158.5 44.62 170 33.12 169.81 52.12 138.5 52.12"/><rect class="cls-18" x="135.57" y="28.37" width="34.25" height="23.75"/><rect class="cls-8" x="141.86" y="31.71" width="7.42" height="7.42" rx="3.71" ry="3.71"/><path class="cls-8" d="M198.71,48.62l-1.09-3.54h-6.34l-1.22,3.54h-3.8l6.13-17.18h4.17l6.06,17.18ZM194.44,35.3h0l-2.2,6.83h4.37Z"/><rect class="cls-18" x="182.94" y="29.37" width="23" height="23"/><rect class="cls-19" x="180.98" y="27.79" width="3.83" height="3.83"/><rect class="cls-19" x="204.02" y="27.79" width="3.83" height="3.83"/><rect class="cls-19" x="204.02" y="50.46" width="3.83" height="3.83"/><rect class="cls-19" x="180.9" y="50.46" width="3.83" height="3.83"/><polygon class="cls-17" points="209.69 53.31 209.69 63.7 212.9 60.49 217.26 60.49 209.69 53.31"/><line class="cls-20" x1="135.83" y1="65.05" x2="145.3" y2="65.05"/><line class="cls-20" x1="149.99" y1="65.05" x2="157.06" y2="65.05"/><line class="cls-20" x1="161.12" y1="65.05" x2="168.19" y2="65.05"/><line class="cls-20" x1="135.83" y1="70.39" x2="145.3" y2="70.39"/><line class="cls-20" x1="149.99" y1="70.39" x2="157.06" y2="70.39"/><line class="cls-20" x1="161.12" y1="70.39" x2="168.19" y2="70.39"/><line class="cls-20" x1="135.83" y1="75.73" x2="145.3" y2="75.73"/><line class="cls-20" x1="149.99" y1="75.73" x2="161.12" y2="75.73"/><line class="cls-20" x1="135.83" y1="80.91" x2="145.3" y2="80.91"/><line class="cls-20" x1="149.99" y1="80.91" x2="157.06" y2="80.91"/><path class="cls-21" d="M185.28,70.16l11.13,6.13s2.67-3.67,6.92-3.67V67.25s-5.21-.12-6.5-3.33Z"/><line class="cls-18" x1="185.28" y1="70.1" x2="194.3" y2="70.1"/><line class="cls-18" x1="182.2" y1="88.96" x2="182.2" y2="72.87"/><path class="cls-18" d="M193.95,86.37A12.1,12.1,0,0,1,182.2,75.16"/><rect class="cls-22" x="179.87" y="67.77" width="4.67" height="4.67" transform="translate(3.8 149.37) rotate(-45)"/><rect class="cls-22" x="194.66" y="83.85" width="4.67" height="4.67" transform="translate(-3.24 164.54) rotate(-45)"/><circle class="cls-18" cx="182.2" cy="90.37" r="2"/><line class="cls-23" x1="206.49" y1="76.46" x2="206.49" y2="63.75"/><g class="cls-24"><circle class="cls-25" cx="171" cy="57.54" r="56.17"/></g><line class="cls-26" x1="171" y1="119.18" x2="171" y2="156.55"/><path class="cls-27" d="M193.56,178.62a13.76,13.76,0,0,1-2,8.79"/><path class="cls-8" d="M250.31,223.15h-37a1.15,1.15,0,0,1-1.21-1.07h0a1.15,1.15,0,0,1,1.21-1.07h37a1.15,1.15,0,0,1,1.21,1.07h0A1.15,1.15,0,0,1,250.31,223.15Z"/></g></g></svg>