<svg xmlns="http://www.w3.org/2000/svg" viewBox="0 0 541.5 366.5"><defs><style>.cls-1{fill:#73b1d6;}.cls-12,.cls-2,.cls-20,.cls-22,.cls-23,.cls-25,.cls-3{fill:none;stroke-miterlimit:10;}.cls-2,.cls-3{stroke:#c7c7c7;stroke-width:3px;}.cls-3{stroke-linecap:square;}.cls-4{fill:#ffab78;}.cls-5{fill:#d0021b;}.cls-6{fill:#c7c7c7;}.cls-7{fill:#3e4651;}.cls-8{fill:#d4d4d4;}.cls-9{fill:#614648;}.cls-10{fill:#8497ac;}.cls-11{fill:#b2bac7;}.cls-12{stroke:#ffab78;stroke-width:4px;}.cls-12,.cls-22,.cls-23,.cls-25{stroke-linecap:round;}.cls-13{fill:#738ba3;}.cls-14{fill:#849fbb;}.cls-15{fill:#1d628b;}.cls-16{fill:#836d6f;}.cls-17{fill:#b8959b;}.cls-18{fill:#4f5863;}.cls-19{fill:#b8cbd6;}.cls-20,.cls-22{stroke:#0c0c0c;}.cls-20{stroke-width:1.5px;}.cls-21{fill:#0c0c0c;}.cls-22{stroke-width:2.2px;stroke-dasharray:0 3.61;}.cls-23,.cls-25{stroke:#000;stroke-width:2.75px;}.cls-23{stroke-dasharray:0 9;}.cls-23,.cls-24{opacity:0.29;}.cls-25{stroke-dasharray:0 9.05;}</style></defs><title>Asset 4sparrow</title><g id="Layer_2" data-name="Layer 2"><g id="Layer_1-2" data-name="Layer 1"><path class="cls-1" d="M541.5,355.46c-45.13,4.6-90.25,7-135.38,8.62l-16.92.65-16.92.47c-11.28.34-22.56.5-33.84.74s-22.56.28-33.84.43l-33.84.13-33.84-.15c-11.28-.15-22.56-.21-33.84-.44s-22.56-.4-33.84-.74c-5.64-.16-11.28-.28-16.92-.48L135.38,364C90.25,362.42,45.13,360,0,355.46v-1.3l67.69-.32,67.69-.11,135.38-.22,135.38.22,67.69.11,67.69.32Z"/><line class="cls-2" x1="144.51" y1="250.94" x2="123.78" y2="264.75"/><polyline class="cls-3" points="103.04 250.94 123.78 264.75 123.78 352.08"/><path class="cls-4" d="M267.52,279.54c2.13-9.15,15.08-58,15.08-58s4.51-18.81,5.4-23.24,1.63-8.89,2.12-13.39a78.83,78.83,0,0,0,.4-13.78h0a.41.41,0,0,1,.38-.44c.16,0,6-1.27,6.84,5.7.78,4,0,11.17,0,11.17-2.45,15-12.62,36-16.42,58.16,0,0-2.87,16.73-11.58,31.92-.35.61-1.45,2.53-2,2.35A.5.5,0,0,1,267.52,279.54Z"/><line class="cls-2" x1="243.1" y1="287.03" x2="243.1" y2="338.53"/><path class="cls-2" d="M264.4,350.28v-4.44a7.31,7.31,0,0,0-7.31-7.31h-28a7.31,7.31,0,0,0-7.31,7.31v4.44"/><line class="cls-2" x1="243.1" y1="338.53" x2="243.1" y2="350.28"/><circle class="cls-5" cx="221.61" cy="350.28" r="3.24"/><circle class="cls-5" cx="264.15" cy="350.57" r="3.24"/><circle class="cls-5" cx="242.88" cy="350.38" r="3.24"/><rect class="cls-4" x="218.29" y="280.65" width="49.61" height="7.12" rx="3.56" ry="3.56"/><path class="cls-6" d="M205.76,239.64c-5,.3-9.19.41-14.37.55-4.31.12-9.61.5-14.16.65l-.28,0-2.86.13-1.18,0-.29,0a6,6,0,0,0-.87.16A3.75,3.75,0,0,0,169.3,244c-.63,1.73-3.52,3.27-5.27,3.89-.85.3-1.22.43-2,.65-1.07-.32-1.91-.77-.83-1.87.2-.2,1-.51,1.32-.77,2.29-1.68,1-3.28-1-4.57a7,7,0,0,0-1.09-.29c-1.44.71-9,5.55-9.93,5.66a1.35,1.35,0,0,1,.13-1.38c2.75-4.28,7.31-6.81,10.5-10.82,14.38.37,27.74-2.61,41.53-6.39C204.63,231.74,205.1,235.58,205.76,239.64Z"/><path class="cls-7" d="M245.78,216.56c-1.32,3.41-2.51,6.17-3.68,8.74a22.21,22.21,0,0,1-17.55,12.86c-7.07.85-14.17,2-21.27,2.5a37.32,37.32,0,0,0-2-13c6.39-2,11.36-2.12,17.86-5.14,1.73-.8,3.83-2,4.82-7.14s1.62-21.29,14.68-19.41C253.23,199.87,249,208.33,245.78,216.56Z"/><path class="cls-6" d="M207.18,175.69s3,10.62,15.59,9.27h2.7s-1.65,13.7-3.93,16c0,0-19.66-1.12-25.16-12.34C196.37,188.6,197.72,174.64,207.18,175.69Z"/><path d="M221.43,185.94c-.41,3.32-1.86,12.9-5.12,16.16,0,0,19.72,19.44,13.48,54.49,0,0,14,4.21,28.38,2.84a8,8,0,0,1,7.34,5s14.69-30.66,5.57-54.78c0,0-6.73-17.67-19.54-21.62-14.28-4.4-22.62-3.37-28.83-3.23A1.32,1.32,0,0,0,221.43,185.94Z"/><path class="cls-8" d="M221.23,228c-13.83,3.74-27,6.94-41.42,6-3.07,3.78-6.19,7.42-9.55,10.95a1.27,1.27,0,0,0,1.55,2l.06,0c2.1-1.26,5.24-4.36,7.21-6.35a4,4,0,0,1,1,.25c-.26,2.21.47,4.25.2,6.46,2.58,0,4.73,0,7.31,0a25.22,25.22,0,0,0,2.62-6.56c6.36-.12,13.74-.66,19.85-.72,5.29-.06,9.18-.13,14.2-.39C223.65,235.52,223.42,231.51,221.23,228Z"/><path class="cls-7" d="M264.48,216c-1.32,3.41-2.51,6.17-3.68,8.74a22.21,22.21,0,0,1-17.55,12.86c-7.07.85-14.17,2-21.27,2.5a37.32,37.32,0,0,0-2-13c6.39-2,11.36-2.12,17.86-5.14,1.73-.8,3.83-2,4.82-7.14s1.62-21.29,14.68-19.41C271.93,199.34,267.66,207.8,264.48,216Z"/><path class="cls-7" d="M197.22,248.87H140.35c-1,0-1.86-.48-1.86-1.07h0c0-.59.84-1.07,1.86-1.07h56.86c1,0,1.86.48,1.86,1.07h0C199.07,248.39,198.24,248.87,197.22,248.87Z"/><path class="cls-7" d="M137.57,245.24l-25.69-50.73c-.46-.91-.41-1.87.12-2.14h0c.53-.27,1.33.26,1.79,1.17l25.69,50.73c.46.91.41,1.87-.12,2.14h0C138.84,246.68,138,246.15,137.57,245.24Z"/><path class="cls-8" d="M206.93,171a12.2,12.2,0,1,0-20.26,12.48l-1.55,5.77.35,1a11.07,11.07,0,0,0,3.9-1.1l3.73,10.85,9.57-7.17,2-10A12.18,12.18,0,0,0,206.93,171Z"/><path class="cls-9" d="M210.92,180.91l-2.75,3.66-6.85-3.15-1.9-7.1h-3.67v6l-1.83-.5-.5-6s-21.25-3.42-22-5.92l17.25-11.67s17.75-2.08,17.75,3.5,2.33,17.08,2.33,17.08Z"/><path class="cls-8" d="M160,343.48a21.3,21.3,0,0,1-15.5,8.88s-1.5,1.31,0,1.69,24.75,0,24.75,0l.75-10.56S161.53,342.62,160,343.48Z"/><path class="cls-8" d="M195,337.89c.69,9.81-11.31,14.41-11.31,14.41s-4.95,1.32,1.62,1.91,18.79-5.12,24.17-12.53c-1.54-3.5-4-7-6-10.42C200.2,333.06,197,334.57,195,337.89Z"/><path class="cls-10" d="M183.07,299s10.75,36.25,8.63,40.38L206.94,334s-12-47.66-17.25-50Z"/><path class="cls-11" d="M267.62,259.36s-1.43,12.8-9.93,21.3c0,0-52.75,5.63-66.25,3.5,0,0-7.37,13.29-9.27,37.13-.83,10.48-1.45,21.92-1.45,21.92s-20.72,4.64-26.28-.92c0,0,11-21.62,13.88-41.25a149.55,149.55,0,0,1,9-33.87s8.85-5,25.72-5.37c10-.67,21.59-4.12,21.59-4.12S242.43,253.55,267.62,259.36Z"/><line class="cls-12" x1="37.65" y1="250.94" x2="219.29" y2="250.94"/><path class="cls-6" d="M342.52,78.07C346.75,83.5,349.91,88.95,351,96c3.2-1.14,10.16,4.94,11.8-.56s-7.51-20.25-10.85-25.5C348.17,71.61,344,74.09,342.52,78.07Z"/><path class="cls-8" d="M351.69,49.33q.74,11.39,1.42,22.77C347.51,77,342.09,82,336.62,87l-4-4.07c.59-1.79,1.19-3.58,1.79-5.37a47.28,47.28,0,0,1-1.68-5.87c-.75.15-1.51.29-2.27.39l-1-1.7c1.3-1.19,1.73-3.72,2.25-5.35-.07-.7-.14-1.4-.22-2.1-.31-.16-.62-.3-.92-.48.14-1,.52-2.56.61-3.46.07-.68.06.62,0-.28a20.51,20.51,0,0,1-.12-4.83c-.31-1.92-.48-4.62,2.23-3.85Q342.49,49.68,351.69,49.33Z"/><path d="M324.06,43.31c2.64,3.38,4.49,7.79,7.06,11.35,3.84,1.31,7.75,2.58,11.64,3.81q.25,2.2.5,4.4l2.09-.56c.22-1.19.42-2.37.65-3.57,1-.06,2.43-.41,3.39-.41s1.46.32,1.44,1.36c0,1.86-.33,3.61-.41,5.71s-.15,4.9-.24,7.13c1.87,1.51,3.74,3,5.6,4.47,1.23-2.48,2.32-5.21,3.62-7.54-.6-9.28,1.5-13.62.19-24.07s-25.1-10-33.37-7.35C325.59,38.24,322.07,40.77,324.06,43.31Z"/><path class="cls-8" d="M337.16,342.56c-5.17,2.6-8.83,5.23-14,7.83a23,23,0,0,0-3.44.61,1.78,1.78,0,0,0-1.45,1.76v0a1.39,1.39,0,0,0,1.41,1.37l36.87-.55.93-11.62C351.07,341,343,339.21,337.16,342.56Z"/><path class="cls-13" d="M338.25,114.32q-6.66,14.56-13.31,29.13a20.06,20.06,0,0,0,11.47,5.38l15.66-29.33C348.36,117.11,342.82,112.9,338.25,114.32Z"/><path class="cls-14" d="M341.74,105.57l1.24-2c.83-1.55,6.44-7.31,8.64-8.66,3.47-2.12,4.92-3,6.76-3.44,7.14-1.69,8.48,3,13.93,16.53,7.78,19.29-5.16,57.15,1.7,75.72-.21,10.15-7,13.43-16.34,13.7-7.11-1.35-16.63-3-23.87-2.64-.92-12.17,1.3-27.46,1.9-38.77.4-7.49.58-10.67.78-16.87.07-2.11.08-4.07,0-5.46C336,122.26,336.51,115.36,341.74,105.57Z"/><path class="cls-15" d="M333.79,192.3c.52,20.4,2,38.63.35,58.94,6.8,29.86,4.68,61.15,2.27,91.7,6.6-2.2,20.54,5.71,23.34.79,0,0,.22-74.08-3.05-88.51,1.6-8,3.32-26.76,4.94-34.19,2-1.74,6.14-4,8.14-5.7,2.16-12.67,1.18-12.79,3-25.51C361.83,188,343.48,185.5,333.79,192.3Z"/><path class="cls-6" d="M325.36,143.81,322,150.68c.91,2.83,2.53,4.54,5.59,3.86l4.84-8.13C330.56,144.35,328.13,142.24,325.36,143.81Z"/><path class="cls-8" d="M350.41,149a17.32,17.32,0,0,1-7.2,7.62c-9.67-1.2-2-13.47.32-17.5C350.29,138.78,351.58,143.11,350.41,149Z"/><path class="cls-13" d="M366.93,105.23q.27.23.51.49a8.13,8.13,0,0,1,1.19,9.31c-5.77,11.36-11.54,22.86-17.28,34.09a1.47,1.47,0,0,1-2.15.76c-3-1.3-7.43-3.21-8.67-6.39l16.64-35.88A6.34,6.34,0,0,1,366.93,105.23Z"/><path class="cls-6" d="M341.89,140.36c-2.93,1.22-13.87,5.72-16,7.06-4.62,2.92-6.39,6.09-5.08,8.28a5.72,5.72,0,0,0,6.88.84c3.86-1.92,10.24-7,14.25-10.18a45.4,45.4,0,0,1,6.89,4.69,1.1,1.1,0,0,0,1.72-.11c.53-.64,1.42-1.73,1.87-2.41a1.38,1.38,0,0,0,.09-1.78c-.9-1.51-2.07-3.12-3-4.65,1.43.87,3,1.9,4.38,2.72a.65.65,0,0,0,1-.22h0a.93.93,0,0,0-.27-1.32c-2.44-1.75-5.2-3.56-7.63-5.35C344.71,138.92,344.82,139.14,341.89,140.36Z"/><path class="cls-8" d="M329.14,142.66c-2.62-.51-6.62,1.76-7.34,3.57a8.84,8.84,0,0,0-.67,2.07c-.28,1,0,1-.16,1.85.25.36.46.78.69,1.16l4.1-3.59a25,25,0,0,0,17.45,8.89c-.21-2.59-.44-5.2-.65-7.78C339.6,144.45,334,143.6,329.14,142.66Z"/><path class="cls-6" d="M434.49,81.54c4.57,5.9,8.4,11.68,9.82,19.27,3.27-1.32,9.22,2,10.73-3.85s-7.33-18.2-10.84-23.83C440.3,74.87,436,77.38,434.49,81.54Z"/><path class="cls-8" d="M444.23,51.41c-.05,7.57-.18,15.14,0,22.72-6.27,4.66-13,9.58-19.24,14a2.48,2.48,0,0,1-3.31,0h0c-2.06-1.76-2.16-3.91-1.35-6.34.16-.48.61-1.25.81-1.76a44,44,0,0,1-1.4-4.69,1.65,1.65,0,0,0-1.88-1h0a1.64,1.64,0,0,1-1.6-.61h0a1.34,1.34,0,0,1,.05-1.62,39.55,39.55,0,0,0,2.44-4.74c0-.7-.06-1.39-.08-2.09-.36-.16-.73-.27-1.07-.47l1-3.38c.13-.45,0-.11,0-.11a16.41,16.41,0,0,1,.26-5c-.26-2.38.21-4.42,3-3.8Q433.08,52,444.23,51.41Z"/><path d="M434.83,57.54c-11.44,2.56-18.13-2.38-21.74-13,7.18,2,13.93,1.66,20.61-1.81s14.88-1.86,15.1,6.94S442.16,60.18,434.83,57.54Z"/><path d="M448.83,52.11c-1.41,6.84-3.33,14.39-1.11,21.36-1.28-1.26-3.57,3.75-4.85.4s-1.77-13.77-2.69-18.5C443.08,54.06,445.94,53.24,448.83,52.11Z"/><path d="M436.79,56.38c-.13,3.84-.26,7.69-.37,11.53l-2.75.64c-.19-4.28-.35-8.56-.52-12.84Z"/><path d="M419.19,74.57l9.15-2.1,3.54,1.26,1.79-5.17,2.75-.64c.56,3.89,1.18,7.77,1.87,11.64-4.75,3.78-9.65,7.36-14.49,11q-2.61-2.58-5.2-5.18.27-2,.54-4.06l5-1.36c-.21-1.42-.43-2.85-.63-4.27l-4.29,1.13A1.8,1.8,0,0,1,419.19,74.57Z"/><path class="cls-8" d="M431.38,342.78l-16,7.79h-1.88a2.41,2.41,0,0,0-2.41,2.41v.68h37.68a2.78,2.78,0,0,0,2.78-2.78v-9.17S435.41,338.75,431.38,342.78Z"/><path class="cls-7" d="M419,184.59s-7.95,70.11,6.36,100.66S431,343,431,343l20.9-.25s-7.58-33.28-5.64-45.11A32.35,32.35,0,0,0,443.73,279a31.47,31.47,0,0,1-2.84-16.17l3-30.89a15.64,15.64,0,0,1,4.68-9.7l6.08-5.9a14.67,14.67,0,0,0,4.44-9.68l1.65-28.14S421.17,179.29,419,184.59Z"/><path class="cls-16" d="M468.32,108s2.12-15.36-11.92-15.36l-17.45,7a3.46,3.46,0,0,0-2.06,2.34c-1.66,6.42-7.55,29.31-8.84,36.62a5.56,5.56,0,0,1-2,3.36l-8.9,7.19a7.86,7.86,0,0,0-2.91,6.58L416,184.87a3.08,3.08,0,0,0,3.08,2.91c9.53,0,39.28-.54,41.06-6.1C462.22,175.05,464.8,130.07,468.32,108Z"/><path class="cls-8" d="M450.7,152.27s-6.31,32.41-11.08,44.33c0,0,5.25,1.9,7.11,4.94,0,0,16.69-45.56,16.69-50.07C463.42,151.48,453.09,147.24,450.7,152.27Z"/><path class="cls-17" d="M448.32,122.34s-3-22.77,12.79-26.5c2.51-.59,6.8,2.42,7.16,5,1.49,10.63,2.63,37.82-5.11,55.68,0,0-10.51-3.3-15.4-2.92a.72.72,0,0,1-.79-.87C447.88,148.53,451.06,132.52,448.32,122.34Z"/><path class="cls-18" d="M432.29,196a12,12,0,0,1,5.22-.49,13.6,13.6,0,0,1,5.1,1.61,14,14,0,0,1,2.24,1.53,12.19,12.19,0,0,1,1.82,2,11.46,11.46,0,0,1,2.13,4.8,36.86,36.86,0,0,0-3.36-3.7c-.57-.57-1.23-1-1.84-1.52a21.37,21.37,0,0,0-2-1.25,23.62,23.62,0,0,0-4.41-1.85A42.52,42.52,0,0,0,432.29,196Z"/><path class="cls-19" d="M176.1,77.3v9.42H114.68c-1.74,0-3.17-2.12-3.17-4.71a6.09,6.09,0,0,1,.93-3.33,2.78,2.78,0,0,1,2.24-1.38Z"/><path class="cls-20" d="M193.55,82a6,6,0,0,1-.94,3.33,2.78,2.78,0,0,1-2.24,1.38h-75.7c-1.74,0-3.17-2.12-3.17-4.71a6.09,6.09,0,0,1,.93-3.33,2.78,2.78,0,0,1,2.24-1.38h75.7C192.11,77.3,193.55,79.42,193.55,82Z"/><path class="cls-21" d="M146.2,94a2.36,2.36,0,0,1,2.54-2.69c1.66,0,2.54,1,2.54,2.69V99.5c0,1.73-.89,2.69-2.54,2.69s-2.54-1-2.54-2.69Zm1.68,5.64c0,.74.31,1.06.86,1.06s.86-.31.86-1.06V93.86c0-.74-.34-1.06-.86-1.06s-.86.31-.86,1.06Zm7.49-8.21h1.56l-6.62,16.8h-1.56Zm-.84,8.71c0-1.73.89-2.69,2.54-2.69a2.36,2.36,0,0,1,2.54,2.69v5.52c0,1.73-.89,2.69-2.54,2.69s-2.54-1-2.54-2.69Zm1.68,5.64c0,.74.31,1.06.86,1.06s.86-.31.86-1.06V100c0-.74-.34-1.06-.86-1.06s-.86.31-.86,1.06Z"/><path class="cls-19" d="M126,46.85a7.16,7.16,0,0,1-11.78.29A7,7,0,0,1,118.51,44a2.53,2.53,0,0,1-.82-1.87,2.56,2.56,0,1,1,5.11,0A2.53,2.53,0,0,1,122,44,7,7,0,0,1,126,46.85Z"/><path class="cls-20" d="M127.23,42.91a7.17,7.17,0,0,1-14.34,0,7.17,7.17,0,1,1,14.34,0Z"/><path class="cls-19" d="M158.55,33.85a7.16,7.16,0,0,1-11.78.29A7,7,0,0,1,151,31a2.53,2.53,0,0,1-.82-1.87,2.56,2.56,0,1,1,5.11,0,2.53,2.53,0,0,1-.82,1.87A7,7,0,0,1,158.55,33.85Z"/><path class="cls-20" d="M159.73,29.91a7.17,7.17,0,0,1-14.34,0,7.17,7.17,0,1,1,14.34,0Z"/><path class="cls-19" d="M191,46.85a7.16,7.16,0,0,1-11.78.29A7,7,0,0,1,183.45,44a2.53,2.53,0,0,1-.82-1.87,2.56,2.56,0,1,1,5.11,0,2.53,2.53,0,0,1-.82,1.87A7,7,0,0,1,191,46.85Z"/><path class="cls-20" d="M192.17,42.91a7.17,7.17,0,0,1-14.34,0,7.17,7.17,0,1,1,14.34,0Z"/><line class="cls-22" x1="125.21" y1="51.94" x2="139.18" y2="69.84"/><line class="cls-22" x1="164.38" y1="69.84" x2="178.35" y2="51.94"/><line class="cls-22" x1="152.56" y1="41.43" x2="152.56" y2="64.91"/><line class="cls-23" x1="152.56" y1="122.97" x2="152.56" y2="150.5"/><g class="cls-24"><circle class="cls-25" cx="151.43" cy="57.54" r="56.17"/></g></g></g></svg>